<svg width="22" height="22" viewBox="0 0 22 22" fill="none" xmlns="http://www.w3.org/2000/svg">
<path d="M10.3636 4C10.7151 4 11 4.28491 11 4.63636V17.3636C11 17.7151 10.7151 18 10.3636 18C6.8491 18 4 15.1509 4 11.6364V10.3636C4 6.8491 6.8491 4 10.3636 4Z" fill="white"/>
<path fill-rule="evenodd" clip-rule="evenodd" d="M11 0C4.92487 0 0 4.92487 0 11C0 17.0751 4.92487 22 11 22C17.0751 22 22 17.0751 22 11C22 4.92487 17.0751 0 11 0ZM2 11C2 6.02944 6.02944 2 11 2C15.9706 2 20 6.02944 20 11C20 15.9706 15.9706 20 11 20C6.02944 20 2 15.9706 2 11Z" fill="white"/>
</svg>
