<svg width="20" height="20" viewBox="0 0 20 20" fill="none" xmlns="http://www.w3.org/2000/svg">
<path d="M9.42149 3.63636C9.74099 3.63636 10 3.89537 10 4.21488V15.7851C10 16.1046 9.74099 16.3636 9.42149 16.3636C6.22645 16.3636 3.63636 13.7735 3.63636 10.5785V9.42149C3.63636 6.22645 6.22645 3.63636 9.42149 3.63636Z" fill="white"/>
<path fill-rule="evenodd" clip-rule="evenodd" d="M10 0C4.47715 0 0 4.47715 0 10C0 15.5228 4.47715 20 10 20C15.5228 20 20 15.5228 20 10C20 4.47715 15.5228 0 10 0ZM1.81818 10C1.81818 5.48131 5.48131 1.81818 10 1.81818C14.5187 1.81818 18.1818 5.48131 18.1818 10C18.1818 14.5187 14.5187 18.1818 10 18.1818C5.48131 18.1818 1.81818 14.5187 1.81818 10Z" fill="white"/>
</svg>
