<svg width="396" height="179" viewBox="0 0 396 179" fill="none" xmlns="http://www.w3.org/2000/svg">
<g clip-path="url(#clip0_442_2)">
<path d="M358.018 72.0903H346.049V113.543H358.018V72.0903Z" fill="#FAFAFE"/>
<path d="M365.922 105.745L336.812 71.0952L278.38 71.6297L242.934 106.174L243.65 106.634H243.394V178.486H365.844V106.634L365.922 105.745Z" fill="#FAFAFE"/>
<path d="M336.842 71.1691L300.476 113.828V178.486H365.843V105.713L336.842 71.1691Z" fill="#F0F0FC"/>
<path d="M340.065 142.729H326.715V154.535H340.065V142.729Z" fill="#FAFAFE"/>
<path d="M340.065 122.294H326.715V133.913H340.065V122.294Z" fill="#FAFAFE"/>
<path d="M340.065 142.729H326.715V154.535H340.065V142.729Z" fill="white"/>
<path d="M340.065 122.294H326.715V133.913H340.065V122.294Z" fill="white"/>
<path d="M280.737 139.597H267.387V151.403H280.737V139.597Z" fill="white"/>
<path d="M280.737 119.162H267.387V130.78H280.737V119.162Z" fill="white"/>
<path d="M263.567 72.0903H251.599V113.543H263.567V72.0903Z" fill="#FAFAFE"/>
<path d="M271.472 105.745L242.362 71.0952L183.93 71.6297L148.483 106.174L149.2 106.634H148.944V178.486H271.393V106.634L271.472 105.745Z" fill="#FAFAFE"/>
<path d="M242.392 71.1691L206.025 113.828V178.486H271.393V105.713L242.392 71.1691Z" fill="#F0F0FC"/>
<path d="M245.614 142.729H232.265V154.535H245.614V142.729Z" fill="#FAFAFE"/>
<path d="M245.614 122.294H232.265V133.913H245.614V122.294Z" fill="#FAFAFE"/>
<path d="M245.614 142.729H232.265V154.535H245.614V142.729Z" fill="white"/>
<path d="M245.614 122.294H232.265V133.913H245.614V122.294Z" fill="white"/>
<path d="M186.287 139.597H172.938V151.403H186.287V139.597Z" fill="white"/>
<path d="M186.287 119.162H172.938V130.78H186.287V119.162Z" fill="white"/>
<path d="M166.856 36.3156H150.863V91.7066H166.856V36.3156Z" fill="#FAFAFE"/>
<path d="M177.418 81.2863L138.521 34.9862L60.441 35.7001L13.0767 81.8593L14.0335 82.4747H13.6918V178.486H177.314V82.4747L177.418 81.2863Z" fill="#FAFAFE"/>
<path d="M138.561 35.0846L89.9663 92.0877V178.486H177.314V81.2438L138.561 35.0846Z" fill="#F0F0FC"/>
<path d="M142.867 130.706H125.028V146.482H142.867V130.706Z" fill="#FAFAFE"/>
<path d="M142.867 103.4H125.028V118.926H142.867V103.4Z" fill="#FAFAFE"/>
<path d="M142.867 130.706H125.028V146.482H142.867V130.706Z" fill="white"/>
<path d="M142.867 103.4H125.028V118.926H142.867V103.4Z" fill="white"/>
<path d="M63.5914 126.52H45.7529V142.296H63.5914V126.52Z" fill="white"/>
<path d="M63.5914 99.2142H45.7529V114.74H63.5914V99.2142Z" fill="white"/>
<path d="M382.543 178.131H0V178.925H382.543V178.131Z" fill="#FAFAFE"/>
<path d="M60.2702 163.53C66.648 163.53 71.8182 152.975 71.8182 139.954C71.8182 126.934 66.648 116.379 60.2702 116.379C53.8924 116.379 48.7222 126.934 48.7222 139.954C48.7222 152.975 53.8924 163.53 60.2702 163.53Z" fill="#FAFAFE"/>
<path d="M61.3365 178.543C56.7114 150.779 61.2899 123.114 61.3367 122.838L62.2364 122.991C62.1898 123.265 57.6376 150.784 62.2366 178.394L61.3365 178.543Z" fill="#D8E6FC"/>
<path d="M70.4372 134.885L59.9946 140.473L60.4251 141.279L70.8676 135.69L70.4372 134.885Z" fill="#D8E6FC"/>
<path d="M49.4043 137.684L48.9736 138.489L59.4149 144.081L59.8456 143.276L49.4043 137.684Z" fill="#D8E6FC"/>
<path d="M32.5241 149.706C44.9983 149.706 55.1107 129.062 55.1107 103.596C55.1107 78.1292 44.9983 57.4847 32.5241 57.4847C20.0499 57.4847 9.9375 78.1292 9.9375 103.596C9.9375 129.062 20.0499 149.706 32.5241 149.706Z" fill="#D8E6FC"/>
<path d="M35.0399 179C26.0058 124.767 34.9487 70.7311 35.0401 70.1916L35.9397 70.3441C35.8486 70.8822 26.9319 124.773 35.94 178.85L35.0399 179Z" fill="#FAFAFE"/>
<path d="M52.6153 94.0649L32.1904 104.996L32.6209 105.801L53.0458 94.8701L52.6153 94.0649Z" fill="#FAFAFE"/>
<path d="M11.0649 99.5406L10.6343 100.346L31.0561 111.282L31.4868 110.477L11.0649 99.5406Z" fill="#FAFAFE"/>
<path d="M86.0183 138.942C103.088 138.942 116.926 110.691 116.926 75.8425C116.926 40.9939 103.088 12.7435 86.0183 12.7435C68.9483 12.7435 55.1104 40.9939 55.1104 75.8425C55.1104 110.691 68.9483 138.942 86.0183 138.942Z" fill="#D8E6FC"/>
<path d="M89.6271 179C77.2693 104.814 89.5024 30.8979 89.6273 30.1601L90.527 30.3126C90.4022 31.0491 78.1955 104.819 90.5272 178.85L89.6271 179Z" fill="#FAFAFE"/>
<path d="M113.591 62.9488L85.6416 77.9068L86.072 78.712L114.022 63.754L113.591 62.9488Z" fill="#FAFAFE"/>
<path d="M56.5742 70.442L56.1436 71.2471L84.0894 86.2125L84.52 85.4074L56.5742 70.442Z" fill="#FAFAFE"/>
<path d="M345.667 163.53C352.045 163.53 357.215 152.975 357.215 139.954C357.215 126.934 352.045 116.379 345.667 116.379C339.289 116.379 334.119 126.934 334.119 139.954C334.119 152.975 339.289 163.53 345.667 163.53Z" fill="#FAFAFE"/>
<path d="M344.6 178.543C349.225 150.779 344.647 123.114 344.6 122.838L343.7 122.991C343.747 123.265 348.299 150.784 343.7 178.394L344.6 178.543Z" fill="#D8E6FC"/>
<path d="M335.5 134.885L335.069 135.69L345.512 141.279L345.942 140.473L335.5 134.885Z" fill="#D8E6FC"/>
<path d="M356.533 137.684L346.092 143.276L346.522 144.081L356.964 138.489L356.533 137.684Z" fill="#D8E6FC"/>
<path d="M373.413 149.706C385.887 149.706 396 129.062 396 103.596C396 78.1292 385.887 57.4847 373.413 57.4847C360.939 57.4847 350.827 78.1292 350.827 103.596C350.827 129.062 360.939 149.706 373.413 149.706Z" fill="#D8E6FC"/>
<path d="M370.898 179C379.932 124.767 370.989 70.7311 370.897 70.1916L369.998 70.3441C370.089 70.8822 379.006 124.773 369.998 178.85L370.898 179Z" fill="#FAFAFE"/>
<path d="M353.322 94.0649L352.892 94.8701L373.316 105.801L373.747 104.996L353.322 94.0649Z" fill="#FAFAFE"/>
<path d="M394.872 99.5406L374.45 110.477L374.881 111.282L395.303 100.346L394.872 99.5406Z" fill="#FAFAFE"/>
<path d="M319.919 138.942C336.989 138.942 350.827 110.691 350.827 75.8425C350.827 40.9939 336.989 12.7435 319.919 12.7435C302.849 12.7435 289.011 40.9939 289.011 75.8425C289.011 110.691 302.849 138.942 319.919 138.942Z" fill="#D8E6FC"/>
<path d="M316.31 179C328.668 104.814 316.435 30.8979 316.31 30.1601L315.41 30.3126C315.535 31.0491 327.742 104.819 315.41 178.85L316.31 179Z" fill="#FAFAFE"/>
<path d="M292.346 62.9488L291.916 63.754L319.865 78.712L320.296 77.9068L292.346 62.9488Z" fill="#FAFAFE"/>
<path d="M349.363 70.442L321.417 85.4074L321.848 86.2125L349.793 71.2471L349.363 70.442Z" fill="#FAFAFE"/>
<path d="M233.984 40.2885L237.637 37.365C234.799 37.0517 233.633 38.6004 233.156 39.8262C230.939 38.905 228.525 40.1122 228.525 40.1122L235.834 42.7673C235.466 41.7818 234.824 40.922 233.984 40.2885Z" fill="#FAFAFE"/>
<path d="M144.693 14.4793L148.346 11.5558C145.508 11.2425 144.342 12.7912 143.865 14.017C141.648 13.0958 139.234 14.303 139.234 14.303L146.543 16.9581C146.175 15.9726 145.533 15.1128 144.693 14.4793Z" fill="#FAFAFE"/>
<path d="M290.336 2.96445L293.99 0.0409421C291.152 -0.272342 289.986 1.27632 289.508 2.50209C287.291 1.5809 284.877 2.78816 284.877 2.78816L292.187 5.44322C291.818 4.45775 291.176 3.59788 290.336 2.96445Z" fill="#FAFAFE"/>
<path d="M297.712 173.538C296.741 173.538 295.787 173.794 294.946 174.28C294.093 173.508 293.033 173 291.896 172.818C290.76 172.637 289.595 172.789 288.543 173.257C287.491 173.725 286.598 174.488 285.971 175.454C285.345 176.421 285.012 177.548 285.013 178.7H303.248C303.149 177.298 302.522 175.987 301.495 175.029C300.468 174.071 299.116 173.539 297.712 173.538Z" fill="#FAFAFE"/>
<path d="M112.384 173.538C111.413 173.538 110.459 173.794 109.618 174.28C108.765 173.508 107.705 173 106.568 172.818C105.432 172.637 104.267 172.789 103.215 173.257C102.163 173.725 101.27 174.488 100.643 175.454C100.016 176.421 99.6837 177.548 99.6851 178.7H117.92C117.821 177.298 117.194 175.987 116.167 175.029C115.14 174.071 113.788 173.539 112.384 173.538Z" fill="#FAFAFE"/>
<path d="M207.231 173.538C206.26 173.538 205.306 173.794 204.465 174.28C203.611 173.508 202.552 173 201.415 172.818C200.278 172.637 199.113 172.789 198.062 173.257C197.01 173.725 196.116 174.488 195.49 175.454C194.863 176.421 194.53 177.548 194.532 178.7H212.767C212.667 177.298 212.041 175.987 211.014 175.029C209.987 174.071 208.635 173.539 207.231 173.538Z" fill="#FAFAFE"/>
<path d="M187.217 160.505H134.607V162.203H142.812V178.334H144.509V162.203H176.466V178.334H178.164V162.203H187.217V160.505Z" fill="#FAFAFE"/>
<path d="M187.32 155.425H134.711V157.123H187.32V155.425Z" fill="#FAFAFE"/>
<path d="M187.32 151.18H134.711V152.878H187.32V151.18Z" fill="#FAFAFE"/>
<path d="M187.32 146.935H134.711V148.633H187.32V146.935Z" fill="#FAFAFE"/>
<path d="M269.365 160.505H216.755V162.203H224.96V178.334H226.657V162.203H258.614V178.334H260.312V162.203H269.365V160.505Z" fill="#FAFAFE"/>
<path d="M269.468 155.425H216.859V157.123H269.468V155.425Z" fill="#FAFAFE"/>
<path d="M269.468 151.18H216.859V152.878H269.468V151.18Z" fill="#FAFAFE"/>
<path d="M269.468 146.935H216.859V148.633H269.468V146.935Z" fill="#FAFAFE"/>
</g>
<defs>
<clipPath id="clip0_442_2">
<rect width="396" height="179" fill="white"/>
</clipPath>
</defs>
</svg>
