<svg width="176" height="56" viewBox="0 0 176 56" fill="none" xmlns="http://www.w3.org/2000/svg">
<path fill-rule="evenodd" clip-rule="evenodd" d="M155.962 0.183306C151.517 -0.762191 147.139 2.04322 146.185 6.44936L142.467 23.625C141.513 28.0312 144.343 32.3696 148.789 33.3151L157.002 35.0617C161.447 36.0072 165.825 33.2018 166.778 28.7957L170.497 11.62C171.451 7.21385 168.621 2.87548 164.175 1.92998L155.962 0.183306ZM158.882 12.5164C158.515 12.6603 158.113 12.6933 157.727 12.6112C157.209 12.5011 156.757 12.192 156.469 11.752C156.181 11.312 156.082 10.7771 156.193 10.265C156.276 9.88312 156.471 9.53414 156.754 9.26222C157.038 8.9903 157.396 8.80765 157.784 8.73737C158.173 8.66709 158.574 8.71233 158.936 8.86738C159.299 9.02243 159.607 9.28032 159.821 9.60843C160.036 9.93655 160.147 10.3202 160.142 10.7107C160.136 11.1013 160.013 11.4814 159.789 11.8028C159.565 12.1242 159.249 12.3725 158.882 12.5164ZM157.687 13.3818L162.954 13.7331C163.217 13.7515 163.463 13.8727 163.636 14.0699C163.81 14.2671 163.898 14.5243 163.88 14.7852C163.862 15.046 163.741 15.2892 163.542 15.4614C163.343 15.6336 163.084 15.7208 162.82 15.7039L159.579 15.4878C159.52 15.4839 159.461 15.501 159.414 15.5362C159.367 15.5713 159.335 15.6221 159.322 15.6791L158.499 19.4792L158.5 19.7269L159.584 24.6164C159.666 24.8652 159.644 25.1358 159.525 25.3688C159.405 25.6018 159.197 25.7783 158.945 25.8596C158.694 25.9409 158.421 25.9203 158.185 25.8024C157.949 25.6845 157.769 25.4789 157.686 25.2306L156.407 19.9271C156.395 19.8769 156.368 19.8311 156.331 19.795C156.294 19.7589 156.247 19.7339 156.196 19.723C156.145 19.7121 156.092 19.7157 156.043 19.7333C155.994 19.751 155.951 19.782 155.919 19.8227L152.54 24.1361C152.362 24.3295 152.113 24.4449 151.849 24.4568C151.584 24.4687 151.326 24.3762 151.13 24.1996C150.934 24.023 150.817 23.7768 150.805 23.5152C150.793 23.2535 150.886 22.9979 151.065 22.8045L154.03 18.849L154.196 18.4859L155.003 14.7604C155.015 14.7033 155.006 14.6437 154.978 14.5925C154.949 14.5413 154.903 14.502 154.848 14.4816L151.802 13.3605C151.554 13.2686 151.354 13.0834 151.244 12.8455C151.134 12.6076 151.124 12.3363 151.216 12.0913C151.308 11.8462 151.495 11.6473 151.735 11.5382C151.975 11.4291 152.249 11.4186 152.497 11.5092L157.445 13.3304C157.523 13.3589 157.604 13.3762 157.687 13.3818Z" fill="white"/>
<path d="M145.591 38.7954C142.568 38.806 129.13 47.4752 129.35 48.7152C129.819 51.3501 135.597 56 135.597 56C136.846 55.845 141.062 52.2801 142.936 52.5901C143.758 52.7259 147.134 53.8084 151.369 53.9851C156.798 54.2115 162.613 53.0551 162.613 53.0551L175.106 46.2352C177.448 44.3753 175.127 42.043 168.859 44.9953C168.859 44.9953 165.424 46.8552 162.769 46.8552C160.114 46.8552 156.662 46.1732 153.243 45.4603L153.133 45.4373C150.112 44.8075 148.729 44.5192 149.964 43.6003C151.213 42.6703 158.24 42.6703 159.958 42.3603C161.676 42.0503 160.895 39.4154 159.021 39.2604C157.147 39.1054 148.614 38.7849 145.591 38.7954Z" fill="white"/>
<path d="M9.33961 23.3979C7.43685 23.3979 5.78421 23.0083 4.38171 22.2292C2.98814 21.4412 1.90723 20.3301 1.13898 18.8958C0.379659 17.4526 0 15.7482 0 13.7827V13.1319C0 11.2549 0.366259 9.59485 1.09878 8.15168C1.84023 6.69966 2.88987 5.56195 4.24771 4.73855C5.61448 3.91515 7.24478 3.50344 9.13861 3.50344C10.4518 3.50344 11.689 3.68937 12.8503 4.06123C14.0116 4.43309 15.0479 4.99974 15.9591 5.76116V10.436H13.0513L12.6493 7.50093C12.2027 7.19105 11.698 6.94757 11.1352 6.77049C10.5724 6.58456 9.93813 6.4916 9.23241 6.4916C7.57978 6.4916 6.28 7.08923 5.33309 8.28449C4.38618 9.4709 3.91272 11.0779 3.91272 13.1054V13.7827C3.91272 15.8191 4.40404 17.4349 5.38669 18.6301C6.36934 19.8254 7.70931 20.423 9.40661 20.423C9.96939 20.423 10.5322 20.3611 11.095 20.2371C11.6667 20.1043 12.1848 19.9361 12.6493 19.7324L13.0513 17.0099H15.9591V21.6316C15.1998 22.1274 14.2528 22.5479 13.1183 22.8932C11.9838 23.2297 10.7242 23.3979 9.33961 23.3979Z" fill="white"/>
<path d="M24.0123 23.3979C22.4758 23.3979 21.2743 22.9198 20.4078 21.9636C19.5413 20.9985 19.108 19.5022 19.108 17.4747V11.4851L17.5134 11.0867V8.74932H23.0207V17.5013C23.0207 18.5283 23.1994 19.2676 23.5567 19.7192C23.923 20.1618 24.4724 20.3832 25.2049 20.3832C26.3751 20.3832 27.255 19.9494 27.8446 19.0817V11.4851L26.1161 11.0867V8.74932H31.7573V20.3965L33.4993 20.7949V23.119H28.327L28.059 21.2996C27.1032 22.6985 25.7543 23.3979 24.0123 23.3979Z" fill="white"/>
<path d="M35.2547 23.119V20.7949L37.1306 20.3965V11.4851L35.0537 11.0867V8.74932H40.7754L40.9228 10.5289L40.9496 10.8477C41.6642 9.27169 42.7362 8.4837 44.1655 8.4837C44.3978 8.4837 44.6479 8.50141 44.9159 8.53682C45.1928 8.57224 45.4429 8.62536 45.6663 8.69619L45.2509 12.2687L43.3079 12.1625C42.7541 12.1359 42.3029 12.2289 41.9545 12.4413C41.6151 12.6538 41.3113 12.9593 41.0434 13.3577V20.3965L42.9193 20.7949V23.119H35.2547Z" fill="white"/>
<path d="M47.1268 23.119V20.7949L49.0028 20.3965V11.4851L46.9258 11.0867V8.74932H52.6475L52.7949 10.5289L52.8217 10.8477C53.5364 9.27169 54.6083 8.4837 56.0376 8.4837C56.2699 8.4837 56.52 8.50141 56.788 8.53682C57.065 8.57224 57.3151 8.62536 57.5384 8.69619L57.123 12.2687L55.1801 12.1625C54.6262 12.1359 54.1751 12.2289 53.8267 12.4413C53.4872 12.6538 53.1835 12.9593 52.9155 13.3577V20.3965L54.7915 20.7949V23.119H47.1268Z" fill="white"/>
<path d="M58.5836 23.119V20.7949L60.4729 20.3965V11.4851L58.3826 11.0867V8.74932H64.3857V20.3965L66.2616 20.7949V23.119H58.5836ZM60.0308 6.02677L62.6973 2.40115H66.8378L66.8646 2.48083L63.1663 6.02677H60.0308Z" fill="white"/>
<path d="M74.3953 23.3979C73.0017 23.3979 71.7957 23.088 70.7773 22.4683C69.7679 21.8485 68.9907 20.9941 68.4458 19.9051C67.9009 18.8161 67.6284 17.5633 67.6284 16.1467V15.7482C67.6284 14.3405 67.9053 13.0921 68.4592 12.0031C69.013 10.9052 69.7947 10.0464 70.8041 9.42663C71.8136 8.79801 73.0017 8.4837 74.3685 8.4837C75.6638 8.4837 76.7849 8.68734 77.7318 9.09461C78.6787 9.49303 79.447 9.95786 80.0365 10.4891L80.0098 14.6061H77.0618L76.5392 12.0429C76.3248 11.8304 76.0524 11.6578 75.7218 11.525C75.3913 11.3922 75.0563 11.3258 74.7169 11.3258C73.6449 11.3258 72.8454 11.7198 72.3183 12.5077C71.8002 13.2869 71.5411 14.367 71.5411 15.7482V16.1467C71.5411 17.6252 71.8225 18.7098 72.3853 19.4004C72.9481 20.0822 73.627 20.423 74.4221 20.423C75.1099 20.423 75.6593 20.246 76.0702 19.8918C76.4901 19.5288 76.7804 19.0197 76.9412 18.3645H80.2777L80.3179 18.4442C80.0857 19.9759 79.514 21.1845 78.6028 22.0698C77.6916 22.9552 76.2891 23.3979 74.3953 23.3979Z" fill="white"/>
<path d="M88.2238 23.3979C86.6873 23.3979 85.4858 22.9198 84.6192 21.9636C83.7527 20.9985 83.3195 19.5022 83.3195 17.4747V11.4851L81.7249 11.0867V8.74932H87.2322V17.5013C87.2322 18.5283 87.4109 19.2676 87.7682 19.7192C88.1344 20.1618 88.6838 20.3832 89.4164 20.3832C90.5866 20.3832 91.4665 19.9494 92.0561 19.0817V11.4851L90.3275 11.0867V8.74932H95.9688V20.3965L97.7108 20.7949V23.119H92.5385L92.2705 21.2996C91.3147 22.6985 89.9657 23.3979 88.2238 23.3979Z" fill="white"/>
<path d="M98.957 23.119V20.7949L100.846 20.3965V5.13697L98.756 4.73855V2.40115H104.759V20.3965L106.648 20.7949V23.119H98.957Z" fill="white"/>
<path d="M114.581 23.3979C113.143 23.3979 111.91 23.088 110.883 22.4683C109.864 21.8485 109.083 20.9897 108.538 19.8918C107.993 18.7851 107.72 17.5146 107.72 16.0803V15.8014C107.72 14.3759 107.993 13.1142 108.538 12.0164C109.083 10.9096 109.864 10.0464 110.883 9.42663C111.91 8.79801 113.134 8.4837 114.554 8.4837C115.984 8.4837 117.207 8.79358 118.226 9.41335C119.253 10.0331 120.039 10.8964 120.584 12.0031C121.129 13.101 121.401 14.367 121.401 15.8014V16.0803C121.401 17.5146 121.129 18.7851 120.584 19.8918C120.039 20.9897 119.258 21.8485 118.239 22.4683C117.221 23.088 116.001 23.3979 114.581 23.3979ZM114.581 20.423C115.59 20.423 116.327 20.0246 116.792 19.2278C117.265 18.4309 117.502 17.3818 117.502 16.0803V15.8014C117.502 14.5264 117.265 13.4861 116.792 12.6804C116.319 11.8747 115.573 11.4719 114.554 11.4719C113.536 11.4719 112.794 11.8747 112.33 12.6804C111.865 13.4861 111.633 14.5264 111.633 15.8014V16.0803C111.633 17.3906 111.865 18.4442 112.33 19.2411C112.794 20.029 113.545 20.423 114.581 20.423Z" fill="white"/>
<path d="M15.6911 47.598V45.2739L17.567 44.8754V35.9641L15.4901 35.5657V33.2283H21.2118L21.386 35.2868C21.8683 34.5519 22.4624 33.9808 23.1681 33.5736C23.8828 33.1663 24.6957 32.9627 25.6069 32.9627C27.0362 32.9627 28.1573 33.4186 28.9702 34.3306C29.7921 35.2425 30.203 36.6724 30.203 38.6202V44.8754L32.0789 45.2739V47.598H24.6019V45.2739L26.2769 44.8754V38.6335C26.2769 37.6684 26.0803 36.9867 25.6873 36.5883C25.3031 36.181 24.7359 35.9774 23.9855 35.9774C22.8957 35.9774 22.0604 36.4289 21.4798 37.332V44.8754L23.0609 45.2739V47.598H15.6911Z" fill="white"/>
<path d="M38.216 47.8769C36.7778 47.8769 35.6343 47.4962 34.7857 46.7347C33.937 45.9644 33.5127 44.9197 33.5127 43.6005C33.5127 42.2547 34.0621 41.1568 35.1609 40.3069C36.2686 39.4569 37.8944 39.0319 40.0384 39.0319H41.9545V37.9695C41.9545 37.2789 41.7491 36.7211 41.3381 36.2961C40.9362 35.8623 40.3287 35.6454 39.5158 35.6454C39.0959 35.6454 38.7163 35.6985 38.3768 35.8047C38.0463 35.9021 37.747 36.0438 37.479 36.2297L37.1708 38.1288H34.3569L34.3033 34.397C35.0626 33.972 35.8845 33.6267 36.7688 33.3611C37.6532 33.0955 38.6403 32.9627 39.7302 32.9627C41.624 32.9627 43.1203 33.4009 44.2191 34.2774C45.3179 35.154 45.8673 36.3979 45.8673 38.0093V43.9325C45.8673 44.1273 45.8673 44.3176 45.8673 44.5036C45.8762 44.6895 45.8941 44.8754 45.9209 45.0614L47.435 45.2739V47.598H42.5843C42.4861 47.3501 42.3878 47.0845 42.2895 46.8011C42.1913 46.5178 42.1198 46.2345 42.0751 45.9512C41.6106 46.5355 41.0612 47.0048 40.427 47.3589C39.8016 47.7042 39.0647 47.8769 38.216 47.8769ZM39.2612 45.0082C39.8061 45.0082 40.3198 44.8887 40.8022 44.6497C41.2935 44.4018 41.6776 44.0786 41.9545 43.6802V41.4092H40.025C39.1674 41.4092 38.5153 41.604 38.0686 41.9935C37.6309 42.3831 37.412 42.8523 37.412 43.4013C37.412 43.9148 37.5728 44.3132 37.8944 44.5965C38.2249 44.871 38.6805 45.0082 39.2612 45.0082Z" fill="white"/>
<path d="M55.4615 47.598V45.2739L57.5384 44.8754V30.9971L55.4615 30.5987V28.2613H63.3271L68.6468 41.7412H68.7272L73.8727 28.2613H81.7517V30.5987L79.6614 30.9971V44.8754L81.7517 45.2739V47.598H73.6717V45.2739L75.8558 44.8754V41.1701L75.9228 32.4447L75.8424 32.4314L70.0136 47.3324H67.0522L61.0893 32.551L61.0089 32.5642L61.2367 40.7717V44.8754L63.5415 45.2739V47.598H55.4615Z" fill="white"/>
<path d="M88.0898 47.8769C86.6515 47.8769 85.5081 47.4962 84.6594 46.7347C83.8108 45.9644 83.3865 44.9197 83.3865 43.6005C83.3865 42.2547 83.9359 41.1568 85.0346 40.3069C86.1424 39.4569 87.7682 39.0319 89.9121 39.0319H91.8283V37.9695C91.8283 37.2789 91.6228 36.7211 91.2119 36.2961C90.8099 35.8623 90.2025 35.6454 89.3895 35.6454C88.9697 35.6454 88.59 35.6985 88.2506 35.8047C87.9201 35.9021 87.6208 36.0438 87.3528 36.2297L87.0446 38.1288H84.2307L84.1771 34.397C84.9364 33.972 85.7582 33.6267 86.6426 33.3611C87.527 33.0955 88.5141 32.9627 89.604 32.9627C91.4978 32.9627 92.9941 33.4009 94.0929 34.2774C95.1916 35.154 95.741 36.3979 95.741 38.0093V43.9325C95.741 44.1273 95.741 44.3176 95.741 44.5036C95.75 44.6895 95.7678 44.8754 95.7946 45.0614L97.3088 45.2739V47.598H92.4581C92.3598 47.3501 92.2616 47.0845 92.1633 46.8011C92.065 46.5178 91.9936 46.2345 91.9489 45.9512C91.4844 46.5355 90.935 47.0048 90.3007 47.3589C89.6754 47.7042 88.9384 47.8769 88.0898 47.8769ZM89.135 45.0082C89.6799 45.0082 90.1935 44.8887 90.6759 44.6497C91.1673 44.4018 91.5514 44.0786 91.8283 43.6802V41.4092H89.8987C89.0412 41.4092 88.389 41.604 87.9424 41.9935C87.5047 42.3831 87.2858 42.8523 87.2858 43.4013C87.2858 43.9148 87.4466 44.3132 87.7682 44.5965C88.0987 44.871 88.5543 45.0082 89.135 45.0082ZM86.723 30.5589L84.6997 30.0276C84.6997 29.4344 84.8381 28.8855 85.115 28.3808C85.4009 27.8762 85.7761 27.4689 86.2406 27.159C86.7051 26.8491 87.2099 26.6942 87.7548 26.6942C88.1836 26.6942 88.6302 26.8004 89.0948 27.0129C89.5593 27.2254 90.0015 27.4423 90.4213 27.6637C90.8412 27.8762 91.203 27.9824 91.5067 27.9824C91.873 27.9735 92.1633 27.8363 92.3777 27.5707C92.601 27.2962 92.7127 26.9509 92.7127 26.5348L94.736 27.0926C94.736 27.7035 94.5931 28.2613 94.3073 28.766C94.0303 29.2618 93.6596 29.6602 93.1951 29.9612C92.7305 30.2534 92.2214 30.3995 91.6675 30.3995C91.203 30.3995 90.7385 30.2932 90.2739 30.0807C89.8183 29.8683 89.3851 29.6558 88.9742 29.4433C88.5722 29.2219 88.2193 29.1113 87.9156 29.1113C87.5493 29.1113 87.259 29.2529 87.0446 29.5362C86.8302 29.8196 86.723 30.1604 86.723 30.5589Z" fill="white"/>
<path d="M105.617 47.8769C104.178 47.8769 102.946 47.567 101.918 46.9472C100.9 46.3275 100.118 45.4686 99.5733 44.3708C99.0284 43.264 98.756 41.9935 98.756 40.5592V40.2803C98.756 38.8549 99.0284 37.5932 99.5733 36.4953C100.118 35.3886 100.9 34.5254 101.918 33.9056C102.946 33.277 104.169 32.9627 105.59 32.9627C107.019 32.9627 108.243 33.2725 109.261 33.8923C110.289 34.5121 111.075 35.3753 111.62 36.482C112.165 37.5799 112.437 38.846 112.437 40.2803V40.5592C112.437 41.9935 112.165 43.264 111.62 44.3708C111.075 45.4686 110.293 46.3275 109.275 46.9472C108.256 47.567 107.037 47.8769 105.617 47.8769ZM105.617 44.902C106.626 44.902 107.363 44.5036 107.828 43.7067C108.301 42.9099 108.538 41.8607 108.538 40.5592V40.2803C108.538 39.0054 108.301 37.9651 107.828 37.1594C107.354 36.3537 106.608 35.9508 105.59 35.9508C104.571 35.9508 103.83 36.3537 103.365 37.1594C102.901 37.9651 102.669 39.0054 102.669 40.2803V40.5592C102.669 41.8696 102.901 42.9232 103.365 43.72C103.83 44.508 104.58 44.902 105.617 44.902Z" fill="white"/>
</svg>
