<svg width="45" height="48" viewBox="0 0 45 48" fill="none" xmlns="http://www.w3.org/2000/svg">
<path d="M41.3805 32.2229C40.0764 35.4397 38.0366 38.2743 35.4395 40.4788C32.8424 42.6834 29.767 44.1909 26.4823 44.8694C23.1976 45.5479 19.8035 45.3769 16.5968 44.3713C13.3901 43.3656 10.4684 41.5559 8.08719 39.1005C5.70595 36.6451 3.93766 33.6186 2.93691 30.2857C1.93616 26.9528 1.73343 23.415 2.34644 19.9815C2.95946 16.548 4.36955 13.3234 6.45343 10.5896C8.53732 7.8558 11.2315 5.69606 14.3006 4.29919" stroke="black" stroke-width="4" stroke-linecap="round" stroke-linejoin="round"/>
<path d="M43 23.9057C43 21.0979 42.4698 18.3176 41.4396 15.7235C40.4094 13.1295 38.8994 10.7724 36.9958 8.78701C35.0923 6.80159 32.8324 5.22667 30.3453 4.15217C27.8582 3.07767 25.1925 2.52463 22.5004 2.52463V23.9057H43Z" stroke="black" stroke-width="4" stroke-linecap="round" stroke-linejoin="round"/>
</svg>
