<svg width="45" height="48" viewBox="0 0 45 48" fill="none" xmlns="http://www.w3.org/2000/svg">
<path d="M6.1 2.56763H38.9C39.9874 2.56763 41.0302 3.06823 41.7991 3.9593C42.568 4.85037 43 6.05892 43 7.31908V21.5734C43 27.8743 40.8402 33.917 36.9957 38.3724C33.1512 42.8277 27.9369 45.3307 22.5 45.3307C19.8079 45.3307 17.1422 44.7162 14.655 43.5223C12.1678 42.3284 9.90791 40.5784 8.00431 38.3724C4.15982 33.917 2 27.8743 2 21.5734V7.31908C2 6.05892 2.43196 4.85037 3.20086 3.9593C3.96976 3.06823 5.01261 2.56763 6.1 2.56763V2.56763Z" stroke="black" stroke-width="4" stroke-linecap="round" stroke-linejoin="round"/>
<path d="M14.3 19.1978L22.5 28.7007L30.7 19.1978" stroke="black" stroke-width="4" stroke-linecap="round" stroke-linejoin="round"/>
</svg>
