<svg width="196" height="160" viewBox="0 0 196 160" fill="none" xmlns="http://www.w3.org/2000/svg">
<g clip-path="url(#clip0_543_8)">
<path d="M143.461 131.72C145.017 132.264 146.688 132.4 148.312 132.116C149.937 131.831 151.46 131.136 152.736 130.096C155.984 127.384 157.003 122.918 157.831 118.782L160.283 106.548L155.151 110.062C151.46 112.589 147.687 115.197 145.131 118.857C142.576 122.517 141.461 127.513 143.514 131.473" fill="#E9E9E9"/>
<path d="M143.9 146.531C143.38 142.769 142.846 138.959 143.21 135.156C143.534 131.779 144.57 128.481 146.68 125.777C147.799 124.344 149.162 123.116 150.705 122.149C151.108 121.896 151.479 122.531 151.078 122.782C148.406 124.461 146.34 126.94 145.177 129.862C143.892 133.111 143.686 136.653 143.907 140.105C144.041 142.192 144.325 144.265 144.611 146.336C144.633 146.43 144.619 146.529 144.572 146.612C144.524 146.696 144.446 146.759 144.353 146.788C144.259 146.813 144.159 146.8 144.074 146.752C143.989 146.704 143.926 146.625 143.9 146.531Z" fill="#F0F0F0"/>
<path d="M148.902 139.874C149.57 140.883 150.487 141.704 151.566 142.257C152.645 142.811 153.849 143.079 155.063 143.036C158.181 142.889 160.781 140.724 163.122 138.67L170.044 132.592L165.462 132.374C162.168 132.217 158.788 132.071 155.65 133.081C152.512 134.092 149.618 136.523 149.044 139.753" fill="#E9E9E9"/>
<path d="M142.432 148.694C144.932 144.295 147.832 139.407 153.013 137.844C154.454 137.411 155.964 137.256 157.464 137.387C157.936 137.428 157.818 138.152 157.346 138.112C154.833 137.904 152.325 138.564 150.244 139.98C148.241 141.336 146.682 143.22 145.362 145.218C144.554 146.442 143.83 147.718 143.106 148.993C142.874 149.4 142.198 149.106 142.432 148.694V148.694Z" fill="#F0F0F0"/>
<path d="M80.8144 117.792C77.7475 118.864 74.4547 119.133 71.2531 118.572C68.0515 118.011 65.0492 116.64 62.5353 114.59C56.1329 109.247 54.1255 100.444 52.4922 92.2921C50.8819 84.2553 49.2716 76.2186 47.6613 68.1818L57.7754 75.1069C65.0489 80.087 72.4862 85.2266 77.5224 92.44C82.5585 99.6534 84.7568 109.5 80.7104 117.306" fill="#E9E9E9"/>
<path d="M79.9498 146.983C80.9735 139.568 82.0261 132.058 81.3081 124.564C80.6704 117.908 78.6284 111.408 74.4711 106.078C72.2644 103.254 69.5794 100.834 66.5366 98.9281C65.7431 98.4301 65.0128 99.6805 65.8028 100.176C71.0677 103.485 75.14 108.371 77.4324 114.129C79.9643 120.533 80.3709 127.514 79.9346 134.316C79.6707 138.43 79.1115 142.517 78.548 146.598C78.5036 146.783 78.5313 146.977 78.6255 147.142C78.7198 147.307 78.8735 147.431 79.0557 147.487C79.2416 147.537 79.4397 147.512 79.607 147.418C79.7744 147.323 79.8976 147.167 79.9498 146.983Z" fill="#F0F0F0"/>
<path d="M70.0898 133.862C68.7745 135.85 66.9665 137.468 64.84 138.559C62.7134 139.65 60.3401 140.179 57.9486 140.093C51.8025 139.803 46.6786 135.538 42.0662 131.488L28.4235 119.51L37.4527 119.081C43.946 118.772 50.6068 118.484 56.7914 120.475C62.976 122.466 68.6798 127.258 69.8107 133.623" fill="#E9E9E9"/>
<path d="M82.8429 151.245C77.9157 142.576 72.2007 132.941 61.9888 129.861C59.1494 129.008 56.1721 128.702 53.2172 128.961C52.286 129.041 52.5185 130.468 53.4481 130.388C58.4011 129.979 63.3445 131.28 67.4461 134.071C71.3931 136.742 74.4661 140.456 77.0672 144.395C78.6604 146.807 80.0875 149.322 81.5149 151.834C81.9711 152.636 83.3044 152.057 82.8429 151.245Z" fill="#F0F0F0"/>
<path d="M44.8137 33.8769L2.3908 25.0389L1.8395 24.9243C1.55873 24.8654 1.26694 24.8865 0.997694 24.9851C0.728444 25.0838 0.492664 25.256 0.317469 25.482C0.142274 25.708 0.0347824 25.9785 0.00734932 26.2625C-0.0200837 26.5466 0.0336612 26.8325 0.1624 27.0875L17.1874 60.9577C17.2975 61.1754 17.4587 61.3634 17.6572 61.5062C17.8557 61.649 18.0859 61.7422 18.3282 61.7781C18.5713 61.8142 18.8196 61.7909 19.0516 61.7103C19.2836 61.6297 19.4924 61.494 19.66 61.3152L31.271 48.9955C31.3536 48.9056 31.454 48.8337 31.5659 48.7844C31.6777 48.735 31.7987 48.7092 31.9211 48.7086C32.0875 48.7052 32.2516 48.747 32.3959 48.8293C32.5403 48.9116 32.6594 49.0314 32.7405 49.1758L35.1601 53.5635C35.3146 53.8561 35.5631 54.0889 35.8661 54.2248C36.1691 54.3607 36.509 54.3919 36.8319 54.3134L36.8438 54.3108C37.1706 54.2399 37.464 54.0618 37.6768 53.8051C37.8895 53.5485 38.0093 53.2281 38.0169 52.8955L38.4356 42.7317C38.4406 42.6049 38.4717 42.4805 38.527 42.3661C38.5864 42.2529 38.6674 42.1523 38.7655 42.0697L45.4733 36.5277C45.6938 36.3456 45.8582 36.1054 45.9477 35.8346C46.0372 35.5638 46.0482 35.2734 45.9793 34.9967C45.9105 34.72 45.7646 34.4682 45.5585 34.2701C45.3523 34.0721 45.0942 33.9358 44.8137 33.8769V33.8769ZM45.0856 36.0623L38.3777 41.6043C38.2903 41.6751 38.2112 41.7556 38.1419 41.844L2.31962 25.9437C2.28802 25.9294 2.25508 25.9181 2.22126 25.9101C2.08326 25.8756 1.93746 25.8901 1.8091 25.9512C1.68073 26.0123 1.57787 26.116 1.51829 26.2445C1.45872 26.3731 1.44617 26.5182 1.48283 26.6549C1.51949 26.7917 1.60305 26.9114 1.71906 26.9933L31.222 48.2763C31.0734 48.3542 30.9394 48.4571 30.826 48.5803L19.215 60.8999C19.1143 61.0066 18.9891 61.0875 18.8502 61.1358C18.7112 61.1841 18.5626 61.1983 18.417 61.1773C18.2713 61.1562 18.133 61.1005 18.0136 61.0149C17.8942 60.9293 17.7974 60.8163 17.7314 60.6855L0.706435 26.8153C0.630316 26.6623 0.598955 26.491 0.615926 26.3211C0.632898 26.1512 0.697523 25.9895 0.80243 25.8543C0.907337 25.7192 1.04831 25.616 1.20929 25.5567C1.37027 25.4973 1.54479 25.4841 1.71296 25.5185L2.27735 25.6363L44.6871 34.4711C44.8555 34.5064 45.0105 34.588 45.1344 34.7067C45.2583 34.8255 45.346 34.9765 45.3876 35.1426C45.4292 35.3086 45.4229 35.4829 45.3695 35.6456C45.3161 35.8082 45.2177 35.9526 45.0856 36.0623L45.0856 36.0623Z" fill="#C4C4C4"/>
<path d="M44.8137 33.8769L2.3908 25.0389L1.8395 24.9243C1.55873 24.8654 1.26694 24.8865 0.997694 24.9851C0.728444 25.0838 0.492664 25.256 0.317469 25.482C0.142274 25.708 0.0347824 25.9785 0.00734932 26.2625C-0.0200837 26.5466 0.0336612 26.8325 0.1624 27.0875L17.1874 60.9577C17.2975 61.1754 17.4587 61.3634 17.6572 61.5062C17.8557 61.649 18.0859 61.7422 18.3282 61.7781C18.5713 61.8142 18.8196 61.7909 19.0516 61.7103C19.2836 61.6297 19.4924 61.494 19.66 61.3152L31.271 48.9955C31.3536 48.9056 31.454 48.8337 31.5659 48.7844C31.6777 48.735 31.7987 48.7092 31.9211 48.7086C32.0875 48.7052 32.2516 48.747 32.3959 48.8293C32.5403 48.9116 32.6594 49.0314 32.7405 49.1758L35.1601 53.5635C35.3146 53.8561 35.5631 54.0889 35.8661 54.2248C36.1691 54.3607 36.509 54.3919 36.8319 54.3134L36.8438 54.3108C37.1706 54.2399 37.464 54.0618 37.6768 53.8051C37.8895 53.5485 38.0093 53.2281 38.0169 52.8955L38.4356 42.7317C38.4406 42.6049 38.4717 42.4805 38.527 42.3661C38.5864 42.2529 38.6674 42.1523 38.7655 42.0697L45.4733 36.5277C45.6938 36.3456 45.8582 36.1054 45.9477 35.8346C46.0372 35.5638 46.0482 35.2734 45.9793 34.9967C45.9105 34.72 45.7646 34.4682 45.5585 34.2701C45.3523 34.0721 45.0942 33.9358 44.8137 33.8769V33.8769ZM45.0856 36.0623L38.3777 41.6043C38.2903 41.6752 38.2112 41.7556 38.1419 41.8441C38.0794 41.9228 38.0255 42.0079 37.9811 42.098C37.9347 42.1901 37.8982 42.2869 37.8723 42.3868L37.873 42.3897C37.8457 42.4937 37.8302 42.6004 37.8269 42.7078L37.4083 52.8716C37.4055 53.0714 37.3344 53.2643 37.2066 53.4186C37.0789 53.5728 36.9022 53.6793 36.7055 53.7205L36.6996 53.7218C36.5059 53.7709 36.3011 53.7534 36.1186 53.6723C35.9361 53.5912 35.7865 53.4512 35.6941 53.2749L33.2738 48.8843C33.1491 48.6584 32.9685 48.468 32.749 48.3311C32.5295 48.1942 32.2785 48.1153 32.0198 48.102L32.0169 48.1026C31.9821 48.1012 31.9474 48.0997 31.9134 48.1012C31.672 48.1027 31.4347 48.1628 31.222 48.2763C31.0734 48.3542 30.9394 48.4571 30.826 48.5803L19.215 60.8999C19.1143 61.0066 18.9891 61.0875 18.8502 61.1358C18.7112 61.1841 18.5626 61.1983 18.417 61.1773C18.2713 61.1562 18.133 61.1005 18.0136 61.0149C17.8942 60.9293 17.7974 60.8163 17.7314 60.6855L0.706435 26.8153C0.630316 26.6623 0.598955 26.491 0.615926 26.3211C0.632898 26.1512 0.697523 25.9895 0.80243 25.8543C0.907337 25.7192 1.04831 25.616 1.20929 25.5567C1.37027 25.4973 1.54479 25.4841 1.71296 25.5185L2.27735 25.6363L44.6871 34.4711C44.8555 34.5064 45.0105 34.588 45.1344 34.7067C45.2583 34.8255 45.346 34.9765 45.3876 35.1426C45.4292 35.3086 45.4229 35.4829 45.3695 35.6456C45.3161 35.8082 45.2177 35.9526 45.0856 36.0623L45.0856 36.0623Z" fill="#060606"/>
<path d="M38.2774 41.9035L38.0289 42.457L37.873 42.3897L37.8723 42.3868L2.07839 26.5018L32.0168 48.1026L32.0197 48.102L32.099 48.1617L31.7425 48.6526L31.222 48.2763L1.719 26.9933C1.60299 26.9114 1.51943 26.7917 1.48276 26.6549C1.4461 26.5182 1.45863 26.373 1.51821 26.2445C1.57779 26.116 1.68067 26.0123 1.80904 25.9512C1.93741 25.8901 2.08321 25.8756 2.22122 25.9101C2.25504 25.9181 2.28798 25.9293 2.31958 25.9437L38.1418 41.844L38.2774 41.9035Z" fill="#060606"/>
<path d="M130.382 84.2485L131.93 99.3L131.96 99.6091L132.42 104.073L136.199 140.824V140.83L136.934 147.961C136.647 148.344 136.393 148.75 136.175 149.176C135.509 150.482 135.184 151.934 135.228 153.398C135.273 154.861 135.687 156.291 136.431 157.555C138.274 157.094 140.093 156.569 141.886 155.979C145.595 154.766 149.212 153.291 152.71 151.567C152.346 149.576 151.301 147.772 149.751 146.461L145.957 101.13L145.625 97.1545L144.543 84.2485H130.382Z" fill="#FFB8B8"/>
<path d="M141.232 43.2537C149.057 35.4731 149.057 22.8583 141.232 15.0777C133.408 7.29705 120.722 7.29706 112.897 15.0777C105.072 22.8583 105.072 35.4731 112.897 43.2537C120.722 51.0343 133.408 51.0343 141.232 43.2537Z" fill="#FFB8B8"/>
<path d="M89.7196 111.397C89.7227 111.436 89.7258 111.476 89.7288 111.512C89.7954 112.289 90.1102 113.025 90.6272 113.612C91.1443 114.198 91.8365 114.605 92.6026 114.773L122.504 121.267C122.763 121.323 123.028 121.351 123.293 121.352C124.095 121.351 124.875 121.089 125.513 120.606C126.151 120.123 126.612 119.445 126.825 118.676C126.889 118.439 126.959 118.197 127.036 117.945V117.942C128.044 114.536 129.845 109.9 132.42 104.073C133.002 102.755 133.625 101.374 134.288 99.9303C134.41 99.6637 134.535 99.394 134.657 99.1243C136.026 96.1697 137.552 92.9717 139.238 89.5303C140.062 87.8481 140.685 86.0753 141.093 84.2485C142.179 79.4258 141.75 74.388 139.865 69.8152C139.481 68.8842 139.039 67.9784 138.54 67.103C136.572 63.653 133.783 60.7355 130.418 58.6059C127.053 56.4763 123.214 55.1997 119.237 54.8879C118.606 54.8364 117.979 54.8121 117.348 54.8121C111.038 54.8397 104.982 57.2838 100.438 61.6364C97.7559 64.2218 95.7198 67.3953 94.4919 70.903C94.4128 71.1243 94.3396 71.3485 94.2665 71.5727C93.1407 75.1218 92.2368 78.7368 91.5602 82.397C91.1551 84.5697 90.8259 86.7121 90.5608 88.8C89.6314 96.2946 89.35 103.855 89.7196 111.397Z" fill="#3988F6"/>
<path d="M76.5516 149.47C94.7178 159.737 116.169 162.633 136.431 157.555C138.275 157.094 140.093 156.569 141.886 155.979C140.295 150.821 138.396 145.763 136.199 140.83V140.824C132.536 132.658 129.172 127.661 127.532 125.455C127.263 125.089 127.085 124.665 127.015 124.217C126.944 123.77 126.983 123.312 127.127 122.882L127.636 121.364C127.83 120.789 127.876 120.176 127.771 119.579C127.667 118.982 127.414 118.421 127.036 117.945V117.942C127.002 117.9 126.966 117.858 126.929 117.815C113.609 102.724 90.3871 110.958 90.1525 111.042L90.0366 111.085L89.9635 111.185C89.8842 111.294 89.8051 111.4 89.7289 111.512C83.4328 120.285 79.2487 133.77 76.5516 149.47Z" fill="#060606"/>
<path d="M49.1717 52.3089C49.2718 52.7465 49.3371 53.1914 49.3669 53.6393L84.4103 73.742L92.9281 68.866L102.009 80.6868L87.7731 90.7759C86.6231 91.591 85.2382 92.0131 83.8263 91.9789C82.4145 91.9447 81.0519 91.456 79.9432 90.5862L43.8074 62.2388C42.1766 62.8391 40.4007 62.9314 38.7158 62.5035C37.0309 62.0757 35.517 61.1479 34.3754 59.8436C33.2337 58.5392 32.5185 56.9202 32.3248 55.2018C32.1311 53.4834 32.4681 51.7471 33.291 50.2238C34.1139 48.7005 35.3837 47.4624 36.9315 46.6742C38.4793 45.8861 40.2317 45.5851 41.9557 45.8115C43.6796 46.0378 45.2935 46.7807 46.5825 47.9414C47.8715 49.102 48.7746 50.6254 49.1717 52.3089Z" fill="#FFB8B8"/>
<path d="M84.9475 73.4333V73.4363C85.0745 73.8926 85.2898 74.3197 85.5814 74.6939L91.5603 82.397L94.4097 86.0727L96.9087 89.2909C97.2308 89.7062 97.6392 90.0476 98.106 90.2918C98.5727 90.536 99.087 90.6772 99.6136 90.706C100.14 90.7348 100.667 90.6503 101.158 90.4584C101.649 90.2665 102.092 89.9716 102.458 89.5939L111.533 80.2242L115.279 76.3545C117.407 74.7034 118.789 72.2805 119.124 69.6171C119.458 66.9537 118.716 64.2673 117.061 62.1468C115.406 60.0264 112.974 58.645 110.296 58.3056C107.618 57.9662 104.915 58.6965 102.778 60.3363L100.438 61.6363L86.6966 69.2788C85.9808 69.678 85.4197 70.3038 85.1027 71.0566C84.7858 71.8094 84.7311 72.646 84.9475 73.4333H84.9475Z" fill="#3988F6"/>
<path d="M124.583 78.2636L125.155 96.4606L125.158 96.5757C125.175 97.1003 125.304 97.6151 125.539 98.0852C125.773 98.5554 126.107 98.9696 126.517 99.2998C126.927 99.63 127.404 99.8684 127.916 99.9986C128.427 100.129 128.96 100.148 129.48 100.055L131.96 99.6091L132.594 99.4939H132.597L134.657 99.1242L145.625 97.1545L147.725 96.7788C148.244 96.685 148.736 96.4812 149.169 96.1813C149.601 95.8814 149.964 95.4924 150.232 95.0408C150.5 94.5892 150.667 94.0854 150.722 93.5639C150.777 93.0423 150.718 92.5152 150.55 92.0182L144.635 74.603C144.14 71.965 142.614 69.6296 140.39 68.109C138.166 66.5883 135.427 66.0065 132.773 66.491C130.119 66.9756 127.766 68.487 126.231 70.6938C124.695 72.9007 124.103 75.6229 124.583 78.2636Z" fill="#3988F6"/>
<path d="M123.893 24.583C118.744 28.0877 111.982 31.6904 106.722 27.9582C103.269 25.5075 102.181 20.9695 103.581 16.987C106.1 9.82545 113.019 6.67259 119.636 4.25586C128.238 1.11411 137.604 -1.38529 146.484 0.864672C155.364 3.11464 163.212 11.6639 161.609 20.6356C160.32 27.8504 153.476 33.8537 154.447 41.1176C155.425 48.4281 163.693 52.2761 170.992 53.5827C178.291 54.8892 186.459 55.309 191.705 60.5225C198.397 67.1732 196.726 79.0606 190.429 86.0825C184.132 93.1043 174.63 96.2872 165.423 98.451C153.223 101.318 140.029 102.825 128.442 98.0667C116.856 93.3088 107.839 80.5011 111.196 68.4912C112.613 63.4182 115.953 59.1309 119.181 54.957C122.409 50.7831 125.677 46.4185 126.908 41.2976C127.934 37.0302 127.175 32.0755 124.329 28.8745C123.811 28.3142 123.486 27.6052 123.398 26.8493C123.311 26.0935 123.467 25.3296 123.844 24.6674L123.893 24.583Z" fill="#060606"/>
</g>
<defs>
<clipPath id="clip0_543_8">
<rect width="196" height="160" fill="white"/>
</clipPath>
</defs>
</svg>
