<svg width="36" height="32" viewBox="0 0 36 32" fill="none" xmlns="http://www.w3.org/2000/svg">
<path d="M15.3813 3.4891L2.41044 25.3598C2.14301 25.8276 2.00151 26.3579 2.00001 26.8981C1.99851 27.4382 2.13707 27.9693 2.40191 28.4386C2.66674 28.9079 3.04861 29.2989 3.50953 29.5729C3.97045 29.8468 4.49436 29.9941 5.02912 30H30.9709C31.5056 29.9941 32.0295 29.8468 32.4905 29.5729C32.9514 29.2989 33.3333 28.9079 33.5981 28.4386C33.8629 27.9693 34.0015 27.4382 34 26.8981C33.9985 26.3579 33.857 25.8276 33.5896 25.3598L20.6187 3.4891C20.3457 3.03453 19.9613 2.65869 19.5026 2.39786C19.0439 2.13703 18.5264 2 18 2C17.4736 2 16.9561 2.13703 16.4974 2.39786C16.0387 2.65869 15.6543 3.03453 15.3813 3.4891V3.4891Z" stroke="#3988F6" stroke-width="4" stroke-linecap="round" stroke-linejoin="round"/>
<path d="M18 11.4393V17.6262" stroke="#3988F6" stroke-width="4" stroke-linecap="round" stroke-linejoin="round"/>
<path d="M18 23.8131H18.0158" stroke="#3988F6" stroke-width="4" stroke-linecap="round" stroke-linejoin="round"/>
</svg>
